<mxfile host="app.diagrams.net" modified="2023-05-12T02:53:59.598Z" agent="Mozilla/5.0 (X11; Linux x86_64) AppleWebKit/537.36 (KHTML, like Gecko) Chrome/111.0.0.0 Safari/537.36" version="21.2.9" etag="93hSCGO2hwe9rJBNEzmY" type="github">
  <diagram name="第 1 页" id="yDhNyrrL1X2qI_3AHwEw">
    <mxGraphModel>
      <root>
        <mxCell id="0" />
        <mxCell id="1" parent="0" />
      </root>
    </mxGraphModel>
  </diagram>
</mxfile>
